<svg xmlns="http://www.w3.org/2000/svg" width="512" height="192" viewBox="0 0 512 192">
  <defs>
    <linearGradient id="bg" x1="0" x2="1" y1="0" y2="1">
      <stop offset="0" stop-color="#101820"/>
      <stop offset="0.54" stop-color="#182731"/>
      <stop offset="1" stop-color="#071115"/>
    </linearGradient>
    <linearGradient id="light" x1="0" x2="1" y1="0" y2="0">
      <stop offset="0" stop-color="#5df2a0"/>
      <stop offset="0.5" stop-color="#f8fbf2"/>
      <stop offset="1" stop-color="#68c8ff"/>
    </linearGradient>
    <pattern id="pixels" width="6" height="6" patternUnits="userSpaceOnUse">
      <rect width="6" height="6" fill="transparent"/>
      <rect x="0" y="0" width="1" height="6" fill="#ffffff" opacity="0.06"/>
      <rect x="3" y="0" width="1" height="6" fill="#000000" opacity="0.12"/>
      <rect x="0" y="5" width="6" height="1" fill="#000000" opacity="0.2"/>
    </pattern>
  </defs>
  <rect width="512" height="192" rx="7" fill="url(#bg)"/>
  <rect x="14" y="14" width="484" height="164" rx="4" fill="none" stroke="#eaf7ff" stroke-opacity="0.2"/>
  <path d="M339 24h119c16 0 29 13 29 29v86c0 16-13 29-29 29H339z" fill="#f4f7ec" opacity="0.94"/>
  <circle cx="410" cy="96" r="52" fill="#0e181d"/>
  <path d="M392 125l39-82h19l-39 82z" fill="url(#light)"/>
  <path d="M370 125l27-58h18l-27 58z" fill="#5df2a0"/>
  <text x="38" y="67" fill="#f8fbf2" font-family="Arial, Helvetica, sans-serif" font-size="34" font-weight="800">AFTER DARK</text>
  <text x="39" y="109" fill="#f8fbf2" font-family="Arial, Helvetica, sans-serif" font-size="34" font-weight="800">TRAINING CLUB</text>
  <text x="41" y="143" fill="#80f2b0" font-family="Arial, Helvetica, sans-serif" font-size="18" font-weight="700">4 WEEKS. CENTRAL SINGAPORE.</text>
  <rect width="512" height="192" fill="url(#pixels)"/>
</svg>
